G04 #@! TF.GenerationSoftware,KiCad,Pcbnew,9.0.3*
G04 #@! TF.CreationDate,2025-08-18T23:40:16+09:00*
G04 #@! TF.ProjectId,Sofle_Pico,536f666c-655f-4506-9963-6f2e6b696361,v3.5.4*
G04 #@! TF.SameCoordinates,Original*
G04 #@! TF.FileFunction,Soldermask,Bot*
G04 #@! TF.FilePolarity,Negative*
%FSLAX46Y46*%
G04 Gerber Fmt 4.6, Leading zero omitted, Abs format (unit mm)*
G04 Created by KiCad (PCBNEW 9.0.3) date 2025-08-18 23:40:16*
%MOMM*%
%LPD*%
G01*
G04 APERTURE LIST*
G04 Aperture macros list*
%AMRoundRect*
0 Rectangle with rounded corners*
0 $1 Rounding radius*
0 $2 $3 $4 $5 $6 $7 $8 $9 X,Y pos of 4 corners*
0 Add a 4 corners polygon primitive as box body*
4,1,4,$2,$3,$4,$5,$6,$7,$8,$9,$2,$3,0*
0 Add four circle primitives for the rounded corners*
1,1,$1+$1,$2,$3*
1,1,$1+$1,$4,$5*
1,1,$1+$1,$6,$7*
1,1,$1+$1,$8,$9*
0 Add four rect primitives between the rounded corners*
20,1,$1+$1,$2,$3,$4,$5,0*
20,1,$1+$1,$4,$5,$6,$7,0*
20,1,$1+$1,$6,$7,$8,$9,0*
20,1,$1+$1,$8,$9,$2,$3,0*%
%AMRotRect*
0 Rectangle, with rotation*
0 The origin of the aperture is its center*
0 $1 length*
0 $2 width*
0 $3 Rotation angle, in degrees counterclockwise*
0 Add horizontal line*
21,1,$1,$2,0,0,$3*%
%AMFreePoly0*
4,1,28,-0.850000,0.400000,0.000000,1.250000,0.114750,1.242219,0.293119,1.197860,0.457783,1.116195,0.601041,1.001041,0.716195,0.857783,0.797860,0.693119,0.842219,0.514750,0.850000,0.400000,0.850000,-0.400000,0.842219,-0.514750,0.797860,-0.693119,0.716195,-0.857783,0.601041,-1.001041,0.457783,-1.116195,0.293119,-1.197860,0.114750,-1.242219,0.000000,-1.250000,-0.114750,-1.242219,
-0.293119,-1.197860,-0.457783,-1.116195,-0.601041,-1.001041,-0.716195,-0.857783,-0.797860,-0.693119,-0.842219,-0.514750,-0.850000,-0.400000,-0.850000,0.400000,-0.850000,0.400000,$1*%
%AMFreePoly1*
4,1,28,-0.850000,0.400000,-0.842219,0.514750,-0.797860,0.693119,-0.716195,0.857783,-0.601041,1.001041,-0.457783,1.116195,-0.293119,1.197860,-0.114750,1.242219,0.000000,1.250000,0.114750,1.242219,0.293119,1.197860,0.457783,1.116195,0.601041,1.001041,0.716195,0.857783,0.797860,0.693119,0.842219,0.514750,0.850000,0.400000,0.850000,-0.400000,0.842219,-0.514750,0.797860,-0.693119,
0.716195,-0.857783,0.601041,-1.001041,0.457783,-1.116195,0.293119,-1.197860,0.114750,-1.242219,0.000000,-1.250000,-0.850000,-0.400000,-0.850000,0.400000,-0.850000,0.400000,$1*%
%AMFreePoly2*
4,1,21,-0.750000,0.000000,-0.734505,0.151663,-0.679731,0.316964,-0.588312,0.465177,-0.465177,0.588312,-0.316964,0.679731,-0.151663,0.734505,0.000000,0.750000,0.525000,0.750000,0.750000,0.525000,0.750000,-0.525000,0.525000,-0.750000,0.000000,-0.750000,-0.151663,-0.734505,-0.316964,-0.679731,-0.465177,-0.588312,-0.588312,-0.465177,-0.679731,-0.316964,-0.734505,-0.151663,-0.750000,0.000000,
-0.750000,0.000000,-0.750000,0.000000,$1*%
%AMFreePoly3*
4,1,6,0.500000,0.000000,-0.250000,-0.750000,-0.500000,-0.750000,-0.500000,0.750000,-0.250000,0.750000,0.500000,0.000000,0.500000,0.000000,$1*%
%AMFreePoly4*
4,1,6,0.260000,-0.750000,-0.990000,-0.750000,-0.240000,0.000000,-0.990000,0.750000,0.260000,0.750000,0.260000,-0.750000,0.260000,-0.750000,$1*%
%AMFreePoly5*
4,1,20,-0.750000,0.600000,-0.600000,0.750000,0.000000,0.750000,0.151663,0.734505,0.316964,0.679731,0.465177,0.588312,0.588312,0.465177,0.679731,0.316964,0.734505,0.151663,0.750000,0.000000,0.734505,-0.151663,0.679731,-0.316964,0.588312,-0.465177,0.465177,-0.588312,0.316964,-0.679731,0.151663,-0.734505,0.000000,-0.750000,-0.600000,-0.750000,-0.750000,-0.600000,-0.750000,0.600000,
-0.750000,0.600000,$1*%
%AMFreePoly6*
4,1,18,-1.250000,1.010000,-1.230970,1.105671,-1.176777,1.186777,-1.095671,1.240970,-1.000000,1.260000,0.625000,1.260000,1.250000,0.635000,1.250000,-1.010000,1.230970,-1.105671,1.176777,-1.186777,1.095671,-1.240970,1.000000,-1.260000,-1.000000,-1.260000,-1.095671,-1.240970,-1.176777,-1.186777,-1.230970,-1.105671,-1.250000,-1.010000,-1.250000,1.010000,-1.250000,1.010000,$1*%
%AMFreePoly7*
4,1,17,-1.275000,1.012000,-1.255742,1.108819,-1.200898,1.190898,-1.118819,1.245742,-1.022000,1.265000,1.022000,1.265000,1.118819,1.245742,1.200898,1.190898,1.255742,1.108819,1.275000,1.012000,1.275000,-1.012000,1.255742,-1.108819,1.200898,-1.190898,1.118819,-1.245742,1.022000,-1.265000,-1.275000,-1.265000,-1.275000,1.012000,-1.275000,1.012000,$1*%
%AMFreePoly8*
4,1,13,-0.850000,0.287000,-0.840637,0.334070,-0.813974,0.373974,-0.774070,0.400637,-0.727000,0.410000,0.850000,0.410000,0.850000,-0.410000,-0.727000,-0.410000,-0.774070,-0.400637,-0.813974,-0.373974,-0.840637,-0.334070,-0.850000,-0.287000,-0.850000,0.287000,-0.850000,0.287000,$1*%
%AMFreePoly9*
4,1,18,-0.850000,0.287000,-0.840637,0.334070,-0.813974,0.373974,-0.774070,0.400637,-0.727000,0.410000,0.727000,0.410000,0.774070,0.400637,0.813974,0.373974,0.840637,0.334070,0.850000,0.287000,0.850000,0.000000,0.440000,-0.410000,-0.727000,-0.410000,-0.774070,-0.400637,-0.813974,-0.373974,-0.840637,-0.334070,-0.850000,-0.287000,-0.850000,0.287000,-0.850000,0.287000,$1*%
G04 Aperture macros list end*
%ADD10C,1.200000*%
%ADD11FreePoly0,90.000000*%
%ADD12FreePoly1,90.000000*%
%ADD13O,2.500000X1.700000*%
%ADD14C,1.397000*%
%ADD15R,1.397000X1.397000*%
%ADD16O,2.800000X1.500000*%
%ADD17C,2.000000*%
%ADD18C,4.700000*%
%ADD19C,1.000000*%
%ADD20R,1.700000X1.700000*%
%ADD21O,1.700000X1.700000*%
%ADD22FreePoly2,0.000000*%
%ADD23FreePoly3,0.000000*%
%ADD24FreePoly4,0.000000*%
%ADD25FreePoly5,0.000000*%
%ADD26C,1.700000*%
%ADD27R,1.500000X1.500000*%
%ADD28O,1.500000X1.500000*%
%ADD29C,1.500000*%
%ADD30C,4.400000*%
%ADD31C,0.800000*%
%ADD32R,1.400000X1.400000*%
%ADD33RoundRect,0.300000X-0.450000X-0.300000X0.450000X-0.300000X0.450000X0.300000X-0.450000X0.300000X0*%
%ADD34RoundRect,0.300000X-0.400000X-0.300000X0.400000X-0.300000X0.400000X0.300000X-0.400000X0.300000X0*%
%ADD35C,1.400000*%
%ADD36RotRect,1.400000X1.400000X27.000000*%
%ADD37RoundRect,0.300000X-0.264756X-0.471598X0.537150X-0.063006X0.264756X0.471598X-0.537150X0.063006X0*%
%ADD38RoundRect,0.300000X-0.220205X-0.448898X0.492600X-0.085706X0.220205X0.448898X-0.492600X0.085706X0*%
%ADD39C,1.750000*%
%ADD40C,3.000000*%
%ADD41C,3.987800*%
%ADD42FreePoly6,0.000000*%
%ADD43FreePoly7,0.000000*%
%ADD44FreePoly6,297.000000*%
%ADD45FreePoly7,297.000000*%
%ADD46FreePoly6,15.000000*%
%ADD47FreePoly7,15.000000*%
%ADD48RotRect,1.400000X1.400000X15.000000*%
%ADD49RoundRect,0.300000X-0.357021X-0.406246X0.512312X-0.173309X0.357021X0.406246X-0.512312X0.173309X0*%
%ADD50RoundRect,0.300000X-0.308725X-0.393305X0.464016X-0.186250X0.308725X0.393305X-0.464016X0.186250X0*%
%ADD51FreePoly8,0.000000*%
%ADD52FreePoly9,0.000000*%
%ADD53FreePoly8,180.000000*%
%ADD54FreePoly8,15.000000*%
%ADD55FreePoly9,15.000000*%
%ADD56FreePoly8,195.000000*%
%ADD57FreePoly8,297.000000*%
%ADD58FreePoly9,297.000000*%
%ADD59FreePoly8,117.000000*%
%ADD60R,1.100000X0.600000*%
G04 APERTURE END LIST*
D10*
X82890000Y-92820000D03*
X89890000Y-92820000D03*
X82890000Y-91070000D03*
X89890000Y-91070000D03*
D11*
X93190000Y-93170000D03*
D12*
X91690000Y-88970000D03*
D13*
X87690000Y-88970000D03*
X84690000Y-88970000D03*
D14*
X108847500Y-58090000D03*
X108847500Y-68250000D03*
X108847500Y-55550000D03*
X108847500Y-65710000D03*
X108847500Y-53010000D03*
X108847500Y-60630000D03*
D15*
X108847500Y-50470000D03*
X108847500Y-63170000D03*
D16*
X100000000Y-110100000D03*
X100000000Y-98900000D03*
D17*
X107500000Y-107000000D03*
X107500000Y-102000000D03*
X107500000Y-104500000D03*
X93000000Y-102000000D03*
X93000000Y-107000000D03*
D18*
X206290000Y-61910000D03*
X206275000Y-100025000D03*
X129440000Y-59510000D03*
X129530000Y-97460000D03*
D19*
X83670000Y-113700000D03*
D20*
X83670000Y-106080000D03*
D21*
X83670000Y-108620000D03*
X83670000Y-111160000D03*
X83670000Y-116240000D03*
D22*
X125314000Y-37463068D03*
D23*
X126164000Y-37463068D03*
D24*
X127334000Y-37463068D03*
D25*
X127854000Y-37463068D03*
D14*
X83570000Y-78430000D03*
X83570000Y-80970000D03*
X83570000Y-83510000D03*
D15*
X83570000Y-86050000D03*
D26*
X90240000Y-106070000D03*
D21*
X90240000Y-108610000D03*
X90240000Y-111150000D03*
X90240000Y-113690000D03*
X90240000Y-116230000D03*
D19*
X86920000Y-116230000D03*
D26*
X86920000Y-106070000D03*
D21*
X86920000Y-108610000D03*
X86920000Y-111150000D03*
X86920000Y-113690000D03*
D27*
X83130000Y-45570000D03*
D28*
X83130000Y-35410000D03*
D29*
X86052500Y-36524865D03*
X86052500Y-39064865D03*
D27*
X86052500Y-41604865D03*
D29*
X86052500Y-44144865D03*
X86052500Y-46684865D03*
X86052500Y-49224865D03*
X86052500Y-51764865D03*
D27*
X86052500Y-54304865D03*
D29*
X86052500Y-56844865D03*
X86052500Y-59384865D03*
X86052500Y-61924865D03*
X86052500Y-64464865D03*
D27*
X86052500Y-67004865D03*
D29*
X86052500Y-69544865D03*
X86052500Y-72084865D03*
X86052500Y-74624865D03*
X86052500Y-77164865D03*
D27*
X86052500Y-79704865D03*
D29*
X86052500Y-82244865D03*
X86052500Y-84784865D03*
X103832500Y-84784865D03*
X103832500Y-82244865D03*
D27*
X103832500Y-79704865D03*
D29*
X103832500Y-77164865D03*
X103832500Y-74624865D03*
X103832500Y-72084865D03*
X103832500Y-69544865D03*
D27*
X103832500Y-67004865D03*
D29*
X103832500Y-64464865D03*
X103832500Y-61924865D03*
X103832500Y-59384865D03*
X103832500Y-56844865D03*
D27*
X103832500Y-54304865D03*
D29*
X103832500Y-51764865D03*
X103832500Y-49224865D03*
X103832500Y-46684865D03*
X103832500Y-44144865D03*
D27*
X103832500Y-41604865D03*
D29*
X103832500Y-39064865D03*
X103832500Y-36524865D03*
D14*
X108910000Y-86050000D03*
X108910000Y-83510000D03*
X108910000Y-80970000D03*
D15*
X108910000Y-78430000D03*
D30*
X130075000Y-81370000D03*
X149125000Y-62320000D03*
X149125000Y-100420000D03*
X168175000Y-81370000D03*
D31*
X216805000Y-44160000D03*
X218805000Y-44160000D03*
X224265000Y-44160000D03*
X226805000Y-44160000D03*
D18*
X103590000Y-120530000D03*
X112010000Y-37117432D03*
X105140000Y-90590000D03*
X85649033Y-101000000D03*
D32*
X116730000Y-58575000D03*
D33*
X118780000Y-58575000D03*
D34*
X122630000Y-58575000D03*
D35*
X124730000Y-58575000D03*
D32*
X135780000Y-56075000D03*
D33*
X137830000Y-56075000D03*
D34*
X141680000Y-56075000D03*
D35*
X143780000Y-56075000D03*
D32*
X154830000Y-53610000D03*
D33*
X156880000Y-53610000D03*
D34*
X160730000Y-53610000D03*
D35*
X162830000Y-53610000D03*
D32*
X173880000Y-56075000D03*
D33*
X175930000Y-56075000D03*
D34*
X179780000Y-56075000D03*
D35*
X181880000Y-56075000D03*
D32*
X192930000Y-60975000D03*
D33*
X194980000Y-60975000D03*
D34*
X198830000Y-60975000D03*
D35*
X200930000Y-60975000D03*
D32*
X211980000Y-60975000D03*
D33*
X214030000Y-60975000D03*
D34*
X217880000Y-60975000D03*
D35*
X219980000Y-60975000D03*
D32*
X116730000Y-96675000D03*
D33*
X118780000Y-96675000D03*
D34*
X122630000Y-96675000D03*
D35*
X124730000Y-96675000D03*
D32*
X116730000Y-115725000D03*
D33*
X118780000Y-115725000D03*
D34*
X122630000Y-115725000D03*
D35*
X124730000Y-115725000D03*
D32*
X96000000Y-113040000D03*
D33*
X98050000Y-113040000D03*
D34*
X101900000Y-113040000D03*
D35*
X104000000Y-113040000D03*
D36*
X101193062Y-141278544D03*
D37*
X103019625Y-140347863D03*
D38*
X106450000Y-138600000D03*
D35*
X108321114Y-137646620D03*
D39*
X115470000Y-50000000D03*
X115470000Y-50000000D03*
D40*
X116740000Y-52540000D03*
X118010000Y-55080000D03*
D41*
X120550000Y-50000000D03*
X120550000Y-50000000D03*
D40*
X123090000Y-55080000D03*
X124360000Y-52540000D03*
D39*
X125630000Y-50000000D03*
X125630000Y-50000000D03*
D42*
X114708000Y-55070000D03*
D43*
X127635000Y-52555000D03*
D39*
X153570000Y-45000000D03*
X153570000Y-45000000D03*
D40*
X154840000Y-47540000D03*
X156110000Y-50080000D03*
D41*
X158650000Y-45000000D03*
X158650000Y-45000000D03*
D40*
X161190000Y-50080000D03*
X162460000Y-47540000D03*
D39*
X163730000Y-45000000D03*
X163730000Y-45000000D03*
D42*
X152808000Y-50070000D03*
D43*
X165735000Y-47555000D03*
D39*
X115470000Y-88100000D03*
X115470000Y-88100000D03*
D40*
X116740000Y-90640000D03*
X118010000Y-93180000D03*
D41*
X120550000Y-88100000D03*
X120550000Y-88100000D03*
D40*
X123090000Y-93180000D03*
X124360000Y-90640000D03*
D39*
X125630000Y-88100000D03*
X125630000Y-88100000D03*
D42*
X114708000Y-93170000D03*
D43*
X127635000Y-90655000D03*
D39*
X134520000Y-85600000D03*
X134520000Y-85600000D03*
D40*
X135790000Y-88140000D03*
X137060000Y-90680000D03*
D41*
X139600000Y-85600000D03*
X139600000Y-85600000D03*
D40*
X142140000Y-90680000D03*
X143410000Y-88140000D03*
D39*
X144680000Y-85600000D03*
X144680000Y-85600000D03*
D42*
X133758000Y-90670000D03*
D43*
X146685000Y-88155000D03*
D39*
X153570000Y-102150000D03*
X153570000Y-102150000D03*
D40*
X154840000Y-104690000D03*
X156110000Y-107230000D03*
D41*
X158650000Y-102150000D03*
X158650000Y-102150000D03*
D40*
X161190000Y-107230000D03*
X162460000Y-104690000D03*
D39*
X163730000Y-102150000D03*
X163730000Y-102150000D03*
D42*
X152808000Y-107220000D03*
D43*
X165735000Y-104705000D03*
D39*
X191670000Y-109550000D03*
X191670000Y-109550000D03*
D40*
X192940000Y-112090000D03*
X194210000Y-114630000D03*
D41*
X196750000Y-109550000D03*
X196750000Y-109550000D03*
D40*
X199290000Y-114630000D03*
X200560000Y-112090000D03*
D39*
X201830000Y-109550000D03*
X201830000Y-109550000D03*
D42*
X190908000Y-114620000D03*
D43*
X203835000Y-112105000D03*
D39*
X94489474Y-129314496D03*
X94489474Y-129314496D03*
D40*
X92802886Y-131599210D03*
X91116297Y-133883924D03*
D41*
X96795746Y-133840809D03*
X96795746Y-133840809D03*
D40*
X93422569Y-138410237D03*
X96262293Y-138388680D03*
D39*
X99102018Y-138367122D03*
X99102018Y-138367122D03*
D44*
X89626130Y-130937281D03*
D45*
X97735747Y-141313536D03*
D39*
X112693097Y-129714801D03*
X112693097Y-129714801D03*
D40*
X114577223Y-131839552D03*
X116461349Y-133964304D03*
D41*
X117600000Y-128400000D03*
X117600000Y-128400000D03*
D40*
X121368252Y-132649503D03*
X121937578Y-129867351D03*
D39*
X122506903Y-127085199D03*
X122506903Y-127085199D03*
D46*
X113269274Y-134809265D03*
D47*
X125104867Y-129034208D03*
D39*
X210720000Y-71450000D03*
X210720000Y-71450000D03*
D40*
X211990000Y-73990000D03*
X213260000Y-76530000D03*
D41*
X215800000Y-71450000D03*
X215800000Y-71450000D03*
D40*
X218340000Y-76530000D03*
X219610000Y-73990000D03*
D39*
X220880000Y-71450000D03*
X220880000Y-71450000D03*
D42*
X209958000Y-76520000D03*
D43*
X222885000Y-74005000D03*
D39*
X210720000Y-90500000D03*
X210720000Y-90500000D03*
D40*
X211990000Y-93040000D03*
X213260000Y-95580000D03*
D41*
X215800000Y-90500000D03*
X215800000Y-90500000D03*
D40*
X218340000Y-95580000D03*
X219610000Y-93040000D03*
D39*
X220880000Y-90500000D03*
X220880000Y-90500000D03*
D42*
X209958000Y-95570000D03*
D43*
X222885000Y-93055000D03*
D39*
X210720000Y-109550000D03*
X210720000Y-109550000D03*
D40*
X211990000Y-112090000D03*
X213260000Y-114630000D03*
D41*
X215800000Y-109550000D03*
X215800000Y-109550000D03*
D40*
X218340000Y-114630000D03*
X219610000Y-112090000D03*
D39*
X220880000Y-109550000D03*
X220880000Y-109550000D03*
D42*
X209958000Y-114620000D03*
D43*
X222885000Y-112105000D03*
D39*
X172620000Y-47500000D03*
X172620000Y-47500000D03*
D40*
X173890000Y-50040000D03*
X175160000Y-52580000D03*
D41*
X177700000Y-47500000D03*
X177700000Y-47500000D03*
D40*
X180240000Y-52580000D03*
X181510000Y-50040000D03*
D39*
X182780000Y-47500000D03*
X182780000Y-47500000D03*
D42*
X171858000Y-52570000D03*
D43*
X184785000Y-50055000D03*
D32*
X116730000Y-77675000D03*
D33*
X118780000Y-77675000D03*
D34*
X122630000Y-77675000D03*
D35*
X124730000Y-77675000D03*
D32*
X135780000Y-75125000D03*
D33*
X137830000Y-75125000D03*
D34*
X141680000Y-75125000D03*
D35*
X143780000Y-75125000D03*
D32*
X154830000Y-72625000D03*
D33*
X156880000Y-72625000D03*
D34*
X160730000Y-72625000D03*
D35*
X162830000Y-72625000D03*
D32*
X173880000Y-75125000D03*
D33*
X175930000Y-75125000D03*
D34*
X179780000Y-75125000D03*
D35*
X181880000Y-75125000D03*
D32*
X192930000Y-80025000D03*
D33*
X194980000Y-80025000D03*
D34*
X198830000Y-80025000D03*
D35*
X200930000Y-80025000D03*
D32*
X211980000Y-80025000D03*
D33*
X214030000Y-80025000D03*
D34*
X217880000Y-80025000D03*
D35*
X219980000Y-80025000D03*
D39*
X191670000Y-52400000D03*
X191670000Y-52400000D03*
D40*
X192940000Y-54940000D03*
X194210000Y-57480000D03*
D41*
X196750000Y-52400000D03*
X196750000Y-52400000D03*
D40*
X199290000Y-57480000D03*
X200560000Y-54940000D03*
D39*
X201830000Y-52400000D03*
X201830000Y-52400000D03*
D42*
X190908000Y-57470000D03*
D43*
X203835000Y-54955000D03*
D39*
X134520000Y-66550000D03*
X134520000Y-66550000D03*
D40*
X135790000Y-69090000D03*
X137060000Y-71630000D03*
D41*
X139600000Y-66550000D03*
X139600000Y-66550000D03*
D40*
X142140000Y-71630000D03*
X143410000Y-69090000D03*
D39*
X144680000Y-66550000D03*
X144680000Y-66550000D03*
D42*
X133758000Y-71620000D03*
D43*
X146685000Y-69105000D03*
D39*
X172620000Y-66550000D03*
X172620000Y-66550000D03*
D40*
X173890000Y-69090000D03*
X175160000Y-71630000D03*
D41*
X177700000Y-66550000D03*
X177700000Y-66550000D03*
D40*
X180240000Y-71630000D03*
X181510000Y-69090000D03*
D39*
X182780000Y-66550000D03*
X182780000Y-66550000D03*
D42*
X171858000Y-71620000D03*
D43*
X184785000Y-69105000D03*
D39*
X153570000Y-64050000D03*
X153570000Y-64050000D03*
D40*
X154840000Y-66590000D03*
X156110000Y-69130000D03*
D41*
X158650000Y-64050000D03*
X158650000Y-64050000D03*
D40*
X161190000Y-69130000D03*
X162460000Y-66590000D03*
D39*
X163730000Y-64050000D03*
X163730000Y-64050000D03*
D42*
X152808000Y-69120000D03*
D43*
X165735000Y-66605000D03*
D39*
X172620000Y-85600000D03*
X172620000Y-85600000D03*
D40*
X173890000Y-88140000D03*
X175160000Y-90680000D03*
D41*
X177700000Y-85600000D03*
X177700000Y-85600000D03*
D40*
X180240000Y-90680000D03*
X181510000Y-88140000D03*
D39*
X182780000Y-85600000D03*
X182780000Y-85600000D03*
D42*
X171858000Y-90670000D03*
D43*
X184785000Y-88155000D03*
D39*
X210720000Y-52400000D03*
X210720000Y-52400000D03*
D40*
X211990000Y-54940000D03*
X213260000Y-57480000D03*
D41*
X215800000Y-52400000D03*
X215800000Y-52400000D03*
D40*
X218340000Y-57480000D03*
X219610000Y-54940000D03*
D39*
X220880000Y-52400000D03*
X220880000Y-52400000D03*
D42*
X209958000Y-57470000D03*
D43*
X222885000Y-54955000D03*
D39*
X115470000Y-69050000D03*
X115470000Y-69050000D03*
D40*
X116740000Y-71590000D03*
X118010000Y-74130000D03*
D41*
X120550000Y-69050000D03*
X120550000Y-69050000D03*
D40*
X123090000Y-74130000D03*
X124360000Y-71590000D03*
D39*
X125630000Y-69050000D03*
X125630000Y-69050000D03*
D42*
X114708000Y-74120000D03*
D43*
X127635000Y-71605000D03*
D39*
X172620000Y-123700000D03*
X172620000Y-123700000D03*
D40*
X173890000Y-126240000D03*
X175160000Y-128780000D03*
D41*
X177700000Y-123700000D03*
X177700000Y-123700000D03*
D40*
X180240000Y-128780000D03*
X181510000Y-126240000D03*
D39*
X182780000Y-123700000D03*
X182780000Y-123700000D03*
D42*
X171858000Y-128770000D03*
D43*
X184785000Y-126255000D03*
D39*
X191670000Y-71450000D03*
X191670000Y-71450000D03*
D40*
X192940000Y-73990000D03*
X194210000Y-76530000D03*
D41*
X196750000Y-71450000D03*
X196750000Y-71450000D03*
D40*
X199290000Y-76530000D03*
X200560000Y-73990000D03*
D39*
X201830000Y-71450000D03*
X201830000Y-71450000D03*
D42*
X190908000Y-76520000D03*
D43*
X203835000Y-74005000D03*
D39*
X172620000Y-104650000D03*
X172620000Y-104650000D03*
D40*
X173890000Y-107190000D03*
X175160000Y-109730000D03*
D41*
X177700000Y-104650000D03*
X177700000Y-104650000D03*
D40*
X180240000Y-109730000D03*
X181510000Y-107190000D03*
D39*
X182780000Y-104650000D03*
X182780000Y-104650000D03*
D42*
X171858000Y-109720000D03*
D43*
X184785000Y-107205000D03*
D39*
X191670000Y-90500000D03*
X191670000Y-90500000D03*
D40*
X192940000Y-93040000D03*
X194210000Y-95580000D03*
D41*
X196750000Y-90500000D03*
X196750000Y-90500000D03*
D40*
X199290000Y-95580000D03*
X200560000Y-93040000D03*
D39*
X201830000Y-90500000D03*
X201830000Y-90500000D03*
D42*
X190908000Y-95570000D03*
D43*
X203835000Y-93055000D03*
D39*
X153570000Y-121200000D03*
X153570000Y-121200000D03*
D40*
X154840000Y-123740000D03*
X156110000Y-126280000D03*
D41*
X158650000Y-121200000D03*
X158650000Y-121200000D03*
D40*
X161190000Y-126280000D03*
X162460000Y-123740000D03*
D39*
X163730000Y-121200000D03*
X163730000Y-121200000D03*
D42*
X152808000Y-126270000D03*
D43*
X165735000Y-123755000D03*
D39*
X153570000Y-83100000D03*
X153570000Y-83100000D03*
D40*
X154840000Y-85640000D03*
X156110000Y-88180000D03*
D41*
X158650000Y-83100000D03*
X158650000Y-83100000D03*
D40*
X161190000Y-88180000D03*
X162460000Y-85640000D03*
D39*
X163730000Y-83100000D03*
X163730000Y-83100000D03*
D42*
X152808000Y-88170000D03*
D43*
X165735000Y-85655000D03*
D39*
X134520000Y-47500000D03*
X134520000Y-47500000D03*
D40*
X135790000Y-50040000D03*
X137060000Y-52580000D03*
D41*
X139600000Y-47500000D03*
X139600000Y-47500000D03*
D40*
X142140000Y-52580000D03*
X143410000Y-50040000D03*
D39*
X144680000Y-47500000D03*
X144680000Y-47500000D03*
D42*
X133758000Y-52570000D03*
D43*
X146685000Y-50055000D03*
D48*
X116221038Y-137567032D03*
D49*
X118201186Y-137036453D03*
D50*
X121920000Y-136040000D03*
D35*
X123948444Y-135496480D03*
D39*
X134520000Y-104650000D03*
X134520000Y-104650000D03*
D40*
X135790000Y-107190000D03*
X137060000Y-109730000D03*
D41*
X139600000Y-104650000D03*
X139600000Y-104650000D03*
D40*
X142140000Y-109730000D03*
X143410000Y-107190000D03*
D39*
X144680000Y-104650000D03*
X144680000Y-104650000D03*
D42*
X133758000Y-109720000D03*
D43*
X146685000Y-107205000D03*
D32*
X154830000Y-91675000D03*
D33*
X156880000Y-91675000D03*
D34*
X160730000Y-91675000D03*
D35*
X162830000Y-91675000D03*
D32*
X192930000Y-99075000D03*
D33*
X194980000Y-99075000D03*
D34*
X198830000Y-99075000D03*
D35*
X200930000Y-99075000D03*
D32*
X211980000Y-99075000D03*
D33*
X214030000Y-99075000D03*
D34*
X217880000Y-99075000D03*
D35*
X219980000Y-99075000D03*
D32*
X135780000Y-132275000D03*
D33*
X137830000Y-132275000D03*
D34*
X141680000Y-132275000D03*
D35*
X143780000Y-132275000D03*
D32*
X154830000Y-129775000D03*
D33*
X156880000Y-129775000D03*
D34*
X160730000Y-129775000D03*
D35*
X162830000Y-129775000D03*
D32*
X211980000Y-118125000D03*
D33*
X214030000Y-118125000D03*
D34*
X217880000Y-118125000D03*
D35*
X219980000Y-118125000D03*
D32*
X135780000Y-113225000D03*
D33*
X137830000Y-113225000D03*
D34*
X141680000Y-113225000D03*
D35*
X143780000Y-113225000D03*
D32*
X154830000Y-110725000D03*
D33*
X156880000Y-110725000D03*
D34*
X160730000Y-110725000D03*
D35*
X162830000Y-110725000D03*
D32*
X173880000Y-113225000D03*
D33*
X175930000Y-113225000D03*
D34*
X179780000Y-113225000D03*
D35*
X181880000Y-113225000D03*
D32*
X192962500Y-118010000D03*
D33*
X195012500Y-118010000D03*
D34*
X198862500Y-118010000D03*
D35*
X200962500Y-118010000D03*
D32*
X135780000Y-94175000D03*
D33*
X137830000Y-94175000D03*
D34*
X141680000Y-94175000D03*
D35*
X143780000Y-94175000D03*
D32*
X173880000Y-132275000D03*
D33*
X175930000Y-132275000D03*
D34*
X179780000Y-132275000D03*
D35*
X181880000Y-132275000D03*
D39*
X134520000Y-123700000D03*
X134520000Y-123700000D03*
D40*
X135790000Y-126240000D03*
X137060000Y-128780000D03*
D41*
X139600000Y-123700000D03*
X139600000Y-123700000D03*
D40*
X142140000Y-128780000D03*
X143410000Y-126240000D03*
D39*
X144680000Y-123700000D03*
X144680000Y-123700000D03*
D42*
X133758000Y-128770000D03*
D43*
X146685000Y-126255000D03*
D51*
X137045000Y-41880000D03*
X137045000Y-43380000D03*
D52*
X142145000Y-43380000D03*
D53*
X142145000Y-41880000D03*
D54*
X113677496Y-123632780D03*
X114065725Y-125081668D03*
D55*
X118991947Y-123761691D03*
D56*
X118603718Y-122312802D03*
D51*
X194195000Y-84880000D03*
X194195000Y-86380000D03*
D52*
X199295000Y-86380000D03*
D53*
X199295000Y-84880000D03*
D57*
X100643257Y-129012861D03*
X99306748Y-129693847D03*
D58*
X101622099Y-134237980D03*
D59*
X102958609Y-133556994D03*
D51*
X194195000Y-65830000D03*
X194195000Y-67330000D03*
D52*
X199295000Y-67330000D03*
D53*
X199295000Y-65830000D03*
D51*
X194195000Y-46780000D03*
X194195000Y-48280000D03*
D52*
X199295000Y-48280000D03*
D53*
X199295000Y-46780000D03*
D51*
X194195000Y-103930000D03*
X194195000Y-105430000D03*
D52*
X199295000Y-105430000D03*
D53*
X199295000Y-103930000D03*
D51*
X137045000Y-60930000D03*
X137045000Y-62430000D03*
D52*
X142145000Y-62430000D03*
D53*
X142145000Y-60930000D03*
D51*
X175145000Y-99030000D03*
X175145000Y-100530000D03*
D52*
X180245000Y-100530000D03*
D53*
X180245000Y-99030000D03*
D51*
X156095000Y-96530000D03*
X156095000Y-98030000D03*
D52*
X161195000Y-98030000D03*
D53*
X161195000Y-96530000D03*
D51*
X213245000Y-84880000D03*
X213245000Y-86380000D03*
D52*
X218345000Y-86380000D03*
D53*
X218345000Y-84880000D03*
D32*
X173880000Y-94175000D03*
D33*
X175930000Y-94175000D03*
D34*
X179780000Y-94175000D03*
D35*
X181880000Y-94175000D03*
D51*
X117995000Y-82480000D03*
X117995000Y-83980000D03*
D52*
X123095000Y-83980000D03*
D53*
X123095000Y-82480000D03*
D51*
X175145000Y-60930000D03*
X175145000Y-62430000D03*
D52*
X180245000Y-62430000D03*
D53*
X180245000Y-60930000D03*
D51*
X137045000Y-99030000D03*
X137045000Y-100530000D03*
D52*
X142145000Y-100530000D03*
D53*
X142145000Y-99030000D03*
D51*
X213245000Y-46780000D03*
X213245000Y-48280000D03*
D52*
X218345000Y-48280000D03*
D53*
X218345000Y-46780000D03*
D51*
X117995000Y-44380000D03*
X117995000Y-45880000D03*
D52*
X123095000Y-45880000D03*
D53*
X123095000Y-44380000D03*
D51*
X156095000Y-39380000D03*
X156095000Y-40880000D03*
D52*
X161195000Y-40880000D03*
D53*
X161195000Y-39380000D03*
D60*
X119390003Y-38423068D03*
X119390003Y-37473068D03*
X119390003Y-36523068D03*
X121990003Y-36523068D03*
X121990003Y-38423068D03*
D51*
X156095000Y-115580000D03*
X156095000Y-117080000D03*
D52*
X161195000Y-117080000D03*
D53*
X161195000Y-115580000D03*
D51*
X156095000Y-58430000D03*
X156095000Y-59930000D03*
D52*
X161195000Y-59930000D03*
D53*
X161195000Y-58430000D03*
D51*
X137045000Y-118080000D03*
X137045000Y-119580000D03*
D52*
X142145000Y-119580000D03*
D53*
X142145000Y-118080000D03*
D51*
X117995000Y-63430000D03*
X117995000Y-64930000D03*
D52*
X123095000Y-64930000D03*
D53*
X123095000Y-63430000D03*
D51*
X175145000Y-41880000D03*
X175145000Y-43380000D03*
D52*
X180245000Y-43380000D03*
D53*
X180245000Y-41880000D03*
D51*
X117995000Y-101530000D03*
X117995000Y-103030000D03*
D52*
X123095000Y-103030000D03*
D53*
X123095000Y-101530000D03*
D51*
X175145000Y-79980000D03*
X175145000Y-81480000D03*
D52*
X180245000Y-81480000D03*
D53*
X180245000Y-79980000D03*
D51*
X137045000Y-79980000D03*
X137045000Y-81480000D03*
D52*
X142145000Y-81480000D03*
D53*
X142145000Y-79980000D03*
D51*
X156095000Y-77480000D03*
X156095000Y-78980000D03*
D52*
X161195000Y-78980000D03*
D53*
X161195000Y-77480000D03*
D51*
X213245000Y-65830000D03*
X213245000Y-67330000D03*
D52*
X218345000Y-67330000D03*
D53*
X218345000Y-65830000D03*
D39*
X115470000Y-107150000D03*
X115470000Y-107150000D03*
D40*
X116740000Y-109690000D03*
X118010000Y-112230000D03*
D41*
X120550000Y-107150000D03*
X120550000Y-107150000D03*
D40*
X123090000Y-112230000D03*
X124360000Y-109690000D03*
D39*
X125630000Y-107150000D03*
X125630000Y-107150000D03*
D42*
X114708000Y-112220000D03*
D43*
X127635000Y-109705000D03*
D51*
X213245000Y-103930000D03*
X213245000Y-105430000D03*
D52*
X218345000Y-105430000D03*
D53*
X218345000Y-103930000D03*
D51*
X175145000Y-118080000D03*
X175145000Y-119580000D03*
D52*
X180245000Y-119580000D03*
D53*
X180245000Y-118080000D03*
M02*
