G04 #@! TF.GenerationSoftware,KiCad,Pcbnew,9.0.3*
G04 #@! TF.CreationDate,2025-08-18T23:43:37+09:00*
G04 #@! TF.ProjectId,Sofle_Pico,536f666c-655f-4506-9963-6f2e6b696361,v3.5.4*
G04 #@! TF.SameCoordinates,Original*
G04 #@! TF.FileFunction,Profile,NP*
%FSLAX46Y46*%
G04 Gerber Fmt 4.6, Leading zero omitted, Abs format (unit mm)*
G04 Created by KiCad (PCBNEW 9.0.3) date 2025-08-18 23:43:37*
%MOMM*%
%LPD*%
G01*
G04 APERTURE LIST*
G04 #@! TA.AperFunction,Profile*
%ADD10C,0.100000*%
G04 #@! TD*
G04 #@! TA.AperFunction,Profile*
%ADD11C,0.150000*%
G04 #@! TD*
G04 #@! TA.AperFunction,Profile*
%ADD12C,0.120000*%
G04 #@! TD*
G04 APERTURE END LIST*
D10*
X94110118Y-150220430D02*
G75*
G02*
X92377683Y-149454622I-395918J1446830D01*
G01*
D11*
X226824843Y-42874865D02*
X226824843Y-119074865D01*
D10*
X94110118Y-150220430D02*
X149124843Y-134724865D01*
X81403244Y-35475249D02*
X81403244Y-127530000D01*
X81403244Y-35475249D02*
G75*
G02*
X82903628Y-33974844I1500456J-51D01*
G01*
D11*
X225488686Y-41373864D02*
G75*
G02*
X226824901Y-42874865I-174986J-1501036D01*
G01*
X187224843Y-134724865D02*
X225919106Y-120452127D01*
X149124843Y-134724865D02*
X187224843Y-134724865D01*
X168174843Y-33974865D02*
X225488686Y-41373864D01*
X226824843Y-119074865D02*
G75*
G02*
X225919094Y-120452099I-1499743J-135D01*
G01*
D10*
X81566732Y-128237683D02*
X92377724Y-149454601D01*
X168174843Y-33974865D02*
X82903628Y-33974865D01*
X81566732Y-128237683D02*
G75*
G02*
X81403248Y-127530000I1338268J681883D01*
G01*
D12*
X137855018Y-41130000D02*
X141255018Y-41130000D01*
X141255018Y-44130000D01*
X137855018Y-44130000D01*
X137855018Y-41130000D01*
X118326404Y-124716480D02*
X115042256Y-125596465D01*
X114265799Y-122698687D01*
X117549947Y-121818702D01*
X118326404Y-124716480D01*
X195005018Y-84130000D02*
X198405018Y-84130000D01*
X198405018Y-87130000D01*
X195005018Y-87130000D01*
X195005018Y-84130000D01*
X103222820Y-132423522D02*
X100549801Y-133785493D01*
X99006233Y-130756071D01*
X101679253Y-129394100D01*
X103222820Y-132423522D01*
X195005018Y-65080000D02*
X198405018Y-65080000D01*
X198405018Y-68080000D01*
X195005018Y-68080000D01*
X195005018Y-65080000D01*
X195005018Y-46030000D02*
X198405018Y-46030000D01*
X198405018Y-49030000D01*
X195005018Y-49030000D01*
X195005018Y-46030000D01*
X195005018Y-103180000D02*
X198405018Y-103180000D01*
X198405018Y-106180000D01*
X195005018Y-106180000D01*
X195005018Y-103180000D01*
X137855018Y-60180000D02*
X141255018Y-60180000D01*
X141255018Y-63180000D01*
X137855018Y-63180000D01*
X137855018Y-60180000D01*
X175955018Y-98280000D02*
X179355018Y-98280000D01*
X179355018Y-101280000D01*
X175955018Y-101280000D01*
X175955018Y-98280000D01*
X156905018Y-95780000D02*
X160305018Y-95780000D01*
X160305018Y-98780000D01*
X156905018Y-98780000D01*
X156905018Y-95780000D01*
X214055018Y-84130000D02*
X217455018Y-84130000D01*
X217455018Y-87130000D01*
X214055018Y-87130000D01*
X214055018Y-84130000D01*
X118805018Y-81730000D02*
X122205018Y-81730000D01*
X122205018Y-84730000D01*
X118805018Y-84730000D01*
X118805018Y-81730000D01*
X175955018Y-60180000D02*
X179355018Y-60180000D01*
X179355018Y-63180000D01*
X175955018Y-63180000D01*
X175955018Y-60180000D01*
X137855018Y-98280000D02*
X141255018Y-98280000D01*
X141255018Y-101280000D01*
X137855018Y-101280000D01*
X137855018Y-98280000D01*
X214055018Y-46030000D02*
X217455018Y-46030000D01*
X217455018Y-49030000D01*
X214055018Y-49030000D01*
X214055018Y-46030000D01*
X118805018Y-43630000D02*
X122205018Y-43630000D01*
X122205018Y-46630000D01*
X118805018Y-46630000D01*
X118805018Y-43630000D01*
X156905018Y-38630000D02*
X160305018Y-38630000D01*
X160305018Y-41630000D01*
X156905018Y-41630000D01*
X156905018Y-38630000D01*
X156905018Y-114830000D02*
X160305018Y-114830000D01*
X160305018Y-117830000D01*
X156905018Y-117830000D01*
X156905018Y-114830000D01*
X156905018Y-57680000D02*
X160305018Y-57680000D01*
X160305018Y-60680000D01*
X156905018Y-60680000D01*
X156905018Y-57680000D01*
X137855018Y-117330000D02*
X141255018Y-117330000D01*
X141255018Y-120330000D01*
X137855018Y-120330000D01*
X137855018Y-117330000D01*
X118805018Y-62680000D02*
X122205018Y-62680000D01*
X122205018Y-65680000D01*
X118805018Y-65680000D01*
X118805018Y-62680000D01*
X175955018Y-41130000D02*
X179355018Y-41130000D01*
X179355018Y-44130000D01*
X175955018Y-44130000D01*
X175955018Y-41130000D01*
X118805018Y-100780000D02*
X122205018Y-100780000D01*
X122205018Y-103780000D01*
X118805018Y-103780000D01*
X118805018Y-100780000D01*
X175955018Y-79230000D02*
X179355018Y-79230000D01*
X179355018Y-82230000D01*
X175955018Y-82230000D01*
X175955018Y-79230000D01*
X137855018Y-79230000D02*
X141255018Y-79230000D01*
X141255018Y-82230000D01*
X137855018Y-82230000D01*
X137855018Y-79230000D01*
X156905018Y-76730000D02*
X160305018Y-76730000D01*
X160305018Y-79730000D01*
X156905018Y-79730000D01*
X156905018Y-76730000D01*
X214055018Y-65080000D02*
X217455018Y-65080000D01*
X217455018Y-68080000D01*
X214055018Y-68080000D01*
X214055018Y-65080000D01*
X214055018Y-103180000D02*
X217455018Y-103180000D01*
X217455018Y-106180000D01*
X214055018Y-106180000D01*
X214055018Y-103180000D01*
X175955018Y-117330000D02*
X179355018Y-117330000D01*
X179355018Y-120330000D01*
X175955018Y-120330000D01*
X175955018Y-117330000D01*
M02*
